<?xml version="1.0" encoding="UTF-8"?><svg id="Layer_1" xmlns="http://www.w3.org/2000/svg" viewBox="0 0 245.33 73.37"><defs><style>.cls-1{fill-rule:evenodd;}</style></defs><path d="M123.83,22.03c0-2.27.65-4.2,1.95-5.8,1.3-1.6,3.09-2.4,5.36-2.4,3.31,0,5.78,1.6,7.42,4.8,2.19-1.23,4.51-2.19,6.95-2.87,2.43-.69,4.96-1.03,7.56-1.03,2.01,0,3.73.73,5.16,2.18,1.43,1.45,2.15,3.16,2.15,5.13s-.72,3.74-2.15,5.19c-1.43,1.45-3.15,2.18-5.16,2.18-4.05,0-7.5,1.42-10.35,4.27-2.85,2.85-4.27,6.29-4.27,10.35v21.92c0,2.01-.72,3.73-2.15,5.16-1.43,1.43-3.15,2.15-5.16,2.15s-3.73-.72-5.16-2.15c-1.43-1.43-2.15-3.15-2.15-5.16V22.03Z"/><path d="M53.12,15.45c1.78.89,3,2.23,3.65,4.02.65,1.78.57,3.59-.25,5.41l-21.37,44.29c-.71,1.38-1.69,2.42-2.96,3.12-.15.08-.32.17-.5.28-.97.41-1.95.63-2.96.67h-.22c-1-.04-1.99-.26-2.96-.67-.19-.11-.35-.2-.5-.28-1.3-.71-2.29-1.75-2.96-3.12L.68,24.88c-.82-1.82-.9-3.63-.25-5.41.65-1.79,1.89-3.12,3.71-4.02,1.86-.82,3.69-.9,5.5-.25,1.8.65,3.17,1.85,4.1,3.6l14.89,30.85,14.89-30.85c.89-1.75,2.25-2.95,4.07-3.6,1.82-.65,3.66-.57,5.52.25Z"/><path d="M209.83,5.05c.02.06.04.12.06.18l-.03-.2c-.36-1.09-.98-2.07-1.78-2.87-1.33-1.33-3.17-2.15-5.2-2.15-4.06,0-7.35,3.29-7.35,7.35v8.83l14.3-11.14Z"/><path d="M195.6,38.16l-6.36,4.94c-.75.58-1.84.45-2.42-.31-1.84-2.37-2.73-5.17-2.73-7.95,0-2.36.64-4.7,1.89-6.75.5-.83,1.11-1.61,1.81-2.33h0s7.74-6.03,7.74-6.03l14.68-11.44.02-.02v-.08l4.61-3.58h0s0,0,0,0l25.14,19.51c3.49,2.71,5.31,6.76,5.31,10.85,0,2.94-.94,5.9-2.88,8.4-.33.43-.95.51-1.38.17l-11.85-9.19-.17-.14-4.11-3.19h0l-.33-.26h0l-1.96-1.52-5.48-4.25-2.28-1.77-19.27,14.92Z"/><path d="M244.55,56.47c.11,3.9-2.01,7.67-4.4,10.61-2.1,2.6-4.75,4.26-7.9,5.34-.04.01-.2.07-.41.14-3.51,1.07-7.53.75-11.16.77-3.79.03-7.68-.18-11.24-1.59-1.02-.41-2.01-.89-2.97-1.47-3.31-1.97-5.95-4.62-7.92-7.95-1.97-3.33-2.96-7-2.96-11.02v-9.52l14.62-11.38v20.9c0,2.01.72,3.73,2.15,5.16,2.73,2.74,6.82,2.41,10.38,2.18,1.8-.11,3.87-.59,5.27-1.78.81-.69,1.01-1.41,1.24-2.4.31-1.33,1.07-2.55,2.03-3.51,1.51-1.52,3.35-2.27,5.5-2.27s3.98.76,5.5,2.27c.66.66,1.19,1.4,1.56,2.18.21.44.37.9.49,1.39.1.48.2,1.14.22,1.92Z"/><path class="cls-1" d="M61.61,44.25c0-6.14,1.75-11.77,5.27-16.91,1.39-2.03,3.05-3.88,4.92-5.47,5.43-4.61,11.61-6.92,18.54-6.92,4.83,0,9.46,1.11,13.91,3.34,4.45,2.22,8.12,5.45,11.03,9.67,2.9,4.22,4.43,9.2,4.58,14.93v.07c.11,3.82-3.06,6.94-6.89,6.94h-31.78c0-.11,0-.22,0-.32,0-6.3,5.14-11.44,11.44-11.44h11.5c-1.13-2.64-2.92-4.77-5.37-6.39-2.45-1.62-5.11-2.43-7.98-2.43-3.16,0-5.88.79-8.14,2.38-7.12,4.99-8.63,19.26-.74,24.83,2.3,1.62,5.11,2.43,8.43,2.43,1.5,0,3.03-.11,4.48-.5s2.87-1.35,4.33-1.93c3.74-1.51,8.09-.83,10.03,3.01,1.56,3.09.7,6.86-2.18,8.82-.05.03-.1.07-.14.1-4.83,3.24-10.18,4.87-16.06,4.87-7.28,0-13.71-2.41-19.33-7.21-1.02-.87-1.97-1.83-2.83-2.85-4.68-5.59-7.02-11.93-7.02-19.01Z"/><path d="M164.08,23.16c0-2.27.8-4.2,2.4-5.8,1.6-1.6,3.53-2.4,5.8-2.4s4.2.8,5.8,2.4c1.6,1.6,2.4,3.53,2.4,5.8s-.8,4.26-2.4,5.86c-1.6,1.6-3.53,2.4-5.8,2.4s-4.2-.8-5.8-2.4c-1.6-1.6-2.4-3.55-2.4-5.86Z"/><rect x="164.83" y="37.55" width="14.91" height="35.82" rx="7.18" ry="7.18"/></svg>